<?xml version="1.0" standalone="no"?>
<!DOCTYPE svg PUBLIC "-//W3C//DTD SVG 20010904//EN"
 "http://www.w3.org/TR/2001/REC-SVG-20010904/DTD/svg10.dtd">
<svg version="1.0" xmlns="http://www.w3.org/2000/svg"
 width="2048.000000pt" height="2048.000000pt" viewBox="0 0 2048.000000 2048.000000"
 preserveAspectRatio="xMidYMid meet">
<metadata>
Created by potrace 1.14, written by Peter Selinger 2001-2017
</metadata>
<g transform="translate(0.000000,2048.000000) scale(0.100000,-0.100000)"
fill="#000000" stroke="none">
<path d="M12440 12647 c-43 -91 -89 -157 -156 -227 l-53 -55 22 -21 c82 -78
128 -141 182 -251 l41 -83 24 52 c38 87 116 200 172 252 l53 49 -57 57 c-67
68 -157 203 -173 263 -2 4 -4 10 -5 15 -1 4 -2 10 -1 15 0 4 -2 7 -6 7 -5 0
-24 -33 -43 -73z"/>
<path d="M11441 12373 c-49 -137 -219 -412 -255 -413 -5 0 -32 11 -60 24 -209
100 -472 171 -706 191 -76 6 -275 7 -340 0 -105 -10 -148 -16 -220 -30 -14 -3
-38 -8 -55 -11 -16 -3 -57 -12 -90 -21 -33 -8 -64 -16 -70 -18 -5 -1 -23 -7
-39 -14 -16 -6 -36 -13 -45 -15 -9 -2 -25 -7 -36 -11 -11 -5 -41 -16 -66 -26
-64 -25 -203 -92 -210 -102 -3 -5 -10 -9 -15 -9 -17 -1 -54 -21 -54 -30 0 -4
-5 -8 -11 -8 -16 0 -153 -94 -239 -163 -86 -70 -237 -219 -295 -292 -22 -27
-43 -52 -46 -55 -16 -13 -155 -232 -179 -283 -15 -31 -33 -64 -40 -72 -6 -8
-13 -20 -14 -27 -1 -7 -10 -31 -20 -53 -33 -77 -65 -160 -77 -205 -7 -25 -14
-49 -15 -55 -9 -28 -34 -134 -39 -160 -2 -16 -7 -41 -10 -55 -6 -32 -13 -83
-21 -150 -7 -65 -7 -340 1 -390 3 -19 7 -57 11 -85 3 -27 9 -66 14 -85 5 -19
11 -51 14 -71 3 -20 10 -49 16 -65 6 -16 11 -31 11 -34 -4 -44 139 -396 181
-447 6 -7 7 -13 4 -13 -4 0 -2 -6 4 -12 6 -7 32 -47 58 -88 58 -93 144 -206
216 -285 31 -33 56 -62 56 -65 0 -3 -8 -22 -18 -42 -16 -31 -19 -60 -18 -208
1 -105 -3 -174 -9 -178 -5 -4 -55 -7 -110 -9 -55 -1 -107 -3 -117 -5 -27 -6
-69 -41 -85 -72 -13 -25 -47 -127 -44 -133 0 -2 -5 -20 -13 -40 -8 -21 -22
-64 -32 -95 l-17 -58 -282 0 c-262 0 -284 -1 -306 -19 -57 -45 -19 -130 58
-132 21 0 62 -1 91 -2 28 -1 52 2 52 6 0 5 4 5 10 2 5 -3 33 -5 62 -5 29 0 62
0 73 0 11 0 36 0 55 1 19 1 41 1 48 0 13 -1 114 -1 135 0 23 1 108 -1 195 -4
28 -1 52 1 52 4 0 3 20 3 45 -1 25 -4 48 -4 50 0 3 4 22 4 42 1 21 -4 52 -4
70 0 17 3 37 3 43 -1 6 -4 29 -4 50 0 22 4 42 5 45 2 2 -3 33 -4 67 -3 35 1
69 2 76 2 6 0 29 0 50 0 20 0 48 -1 62 -1 107 -4 210 -4 210 1 0 3 19 3 43 0
23 -4 59 -4 80 0 21 3 40 3 42 -1 2 -4 24 -4 47 -1 24 4 59 4 78 1 19 -3 49
-3 66 1 18 3 37 3 44 -1 6 -4 29 -4 51 0 22 4 41 4 44 0 3 -4 23 -4 45 0 22 4
42 4 45 0 3 -4 23 -4 45 0 22 4 43 3 46 -1 3 -5 9 -7 13 -5 8 6 30 6 168 6 51
0 96 0 100 1 5 1 13 1 18 -1 6 -1 37 -1 70 0 33 0 66 1 73 1 21 0 82 0 95 0 6
0 35 -1 64 -1 28 -1 56 0 60 3 5 3 15 2 22 -2 7 -5 30 -5 51 -1 22 4 42 5 45
2 2 -3 33 -4 67 -3 35 1 69 2 76 2 6 0 29 0 50 0 20 0 48 -1 62 -1 107 -4 210
-4 210 1 0 3 19 3 43 0 23 -4 59 -4 80 0 21 3 40 3 42 -1 2 -4 24 -4 47 -1 24
4 59 4 78 1 19 -3 49 -3 66 1 18 3 37 3 44 -1 6 -4 29 -4 50 0 22 4 42 5 45 2
2 -3 33 -4 67 -3 35 1 69 2 76 2 6 0 29 0 50 0 20 0 48 -1 62 -1 107 -4 210
-4 210 1 0 3 19 3 43 -1 23 -3 56 -3 74 1 17 3 37 3 43 -1 6 -4 28 -4 48 0 21
3 48 3 62 0 14 -4 34 -4 45 0 11 4 31 4 45 0 14 -4 34 -4 45 0 11 4 31 4 45 0
35 -9 86 6 105 32 22 32 19 65 -10 93 l-24 25 -286 0 c-270 0 -285 1 -285 18
0 10 -3 22 -7 26 -4 3 -8 12 -9 19 -1 7 -19 64 -39 127 -63 199 -79 213 -248
215 -109 0 -111 1 -117 25 -4 19 -4 203 1 285 1 20 -12 69 -27 97 -15 29 -15
31 14 62 64 67 87 94 144 169 74 97 147 215 206 332 26 49 47 92 47 95 1 3 9
22 18 44 9 21 17 43 17 48 0 5 7 20 16 33 9 14 14 25 10 25 -3 0 1 17 8 38 18
46 63 222 71 277 3 23 7 51 10 64 22 117 23 453 1 566 -2 11 -7 43 -10 70 -14
93 -76 322 -110 400 -51 118 -92 203 -104 218 -9 9 -12 17 -8 17 4 0 -2 13
-13 29 -12 16 -21 34 -21 40 0 6 -4 11 -10 11 -5 0 -10 4 -10 10 0 8 -75 126
-90 140 -3 3 -25 32 -50 65 -25 32 -79 95 -122 139 -60 63 -74 84 -67 97 13
26 168 179 181 179 6 0 -27 37 -73 83 -47 45 -107 114 -134 152 -27 39 -52 72
-55 75 -3 3 -12 19 -21 36 -45 86 -89 173 -106 212 l-19 43 -13 -38z"/>
</g>
</svg>
